<svg xmlns="http://www.w3.org/2000/svg" viewBox="0 0 309.23 309.29"><defs><style>.cls-1{fill:#fff;}</style></defs><title>arrow</title><g id="Layer_2" data-name="Layer 2"><g id="Layer_1-2" data-name="Layer 1"><path class="cls-1" d="M13.06,0A52.28,52.28,0,0,1,19,2.26q140.79,70.5,281.57,141c5,2.51,8.63,5.86,8.67,11.71,0,6.07-3.74,9.48-8.91,12.06Q159.82,237,19.4,307.11c-5.25,2.62-10.08,3.3-14.92-.37S-.63,298.29.64,292.82C9.14,256.37,17.51,219.9,26,183.44c1.64-7.08,5.08-10,12.46-10.8q70.79-7.47,141.58-14.87c2.69-.28,6.1-.33,5.45-4-.28-1.55-3.33-3.51-5.27-3.71-39.6-3.93-79.22-7.64-118.84-11.39-7.79-.74-15.6-1.38-23.37-2.26-7.27-.81-10.38-3.55-12-10.61Q13.11,70.38.39,14.94C-1.47,6.81,4.08-.18,13.06,0Z"/></g></g></svg>